_________________________  Visit us at _________________________
  
http://p2pdl.com  ____________________________  http://p2pdl.com


The Raid Redemption 2011 BRRip 720p x264 AAC - PRiSTiNE [P2PDL]

				
Genre: Action | Crime | Thriller
A SWAT team becomes trapped in a tenement run by a ruthless mobster and his army of killers and thugs.
Director: Gareth Evans
Stars: Iko Uwais, Ananda George, Ray Sahetapy 
Rated: Rated R for strong brutal bloody violence throughout, and language

Info:  
http://www.imdb.com/title/tt1899353/

Trailer: 



General
Complete name                  : The Raid Redemption 2011 BRRip 720p x264 AAC - PRiSTiNE [P2PDL].mp4
Format                         : MPEG-4
Format profile                 : Base Media / Version 2
Codec ID                       : mp42
File size                      : 550 MiB
Duration                       : 1h 41mn
Overall bit rate mode          : Variable
Overall bit rate               : 760 Kbps

Source                         : 720p Bluray Geckos (Thanks)

Video
ID                             : 1
Format                         : AVC
Width                          : 1 280 pixels
Height                         : 720 pixels
Display aspect ratio           : 16:9
Frame rate mode                : Variable
Frame rate                     : 23.976 fps
Stream size                    : 488 MiB (89%)
Writing library                : x264 core 120

Audio
Format                         : AAC
Bit rate                       : 79.9 Kbps
Channel(s)                     : 2 channels
Channel positions              : Front: L R
Sampling rate                  : 48.0 KHz
Compression mode               : Lossy
Delay relative to video        : 83ms
Stream size                    : 57.7 MiB (11%)
Language                       : English

Subtitle                       : Yes ( English)


Screens:
 
http://www.shotpix.com/images/46557329537375883013.jpg 
http://www.shotpix.com/images/75906118926630418372.jpg 
http://www.shotpix.com/images/03810571786953045285.jpg 
http://www.shotpix.com/images/98795573237133841627.jpg 
http://www.shotpix.com/images/51394596475004807243.jpg


Thumbs:
 
http://www.shotpix.com/images/17802687875772288741.jpg

----------------------------------------------------------------------------------------------------


Recommend to you to use latest version of VLC player. Install K-Lite Codec Pack or shark007 codecs
in case of any kind of problem in playback (For non-VLC Media Player users). Alternatively, install
Core AVC codecs, the fastest decoder that there is coupled with Community Center Codec Pack and play
on Windows Media Player Classic. Check sample to be sure.
Enjoy!

Greets to: VYTO, a2zRG, MusiK_KinG, Neon, Kuroyukihime, TorDigger, Ash968, StyLishSaLH and staff members at
ExtraTorrent, TPB, H33T, KAT, 1337x, PublicHD, Ahashare, BTScene, SilverTorrent, LimeTorrents, TorrentMafia,
P2PDL, and all others.

Encoder Notes: Looking For Early Access To Anything You Can Provide DVDScr, R5, DVDR, BluRay, Direct
Audio, Early Music Releases, Seedboxes, Dedicated Servers anything u can provide, Advance / Promo CDs/
DVDs. If You Got anything to offer contact me at "prg@hush.com".
Fan Page: www .. com / p2pdl